<?xml version="1.0" encoding="UTF-8" standalone="no"?>
<svg
   xmlns:dc="http://purl.org/dc/elements/1.1/"
   xmlns:cc="http://creativecommons.org/ns#"
   xmlns:rdf="http://www.w3.org/1999/02/22-rdf-syntax-ns#"
   xmlns:svg="http://www.w3.org/2000/svg"
   xmlns="http://www.w3.org/2000/svg"
   xmlns:sodipodi="http://sodipodi.sourceforge.net/DTD/sodipodi-0.dtd"
   xmlns:inkscape="http://www.inkscape.org/namespaces/inkscape"
   width="395.89999"
   height="139.20001"
   viewBox="0 0 395.89999 139.20001"
   version="1.1"
   id="svg18"
   sodipodi:docname="rails.svg"
   inkscape:version="0.92.5 (2060ec1f9f, 2020-04-08)">
  <metadata
     id="metadata24">
    <rdf:RDF>
      <cc:Work
         rdf:about="">
        <dc:format>image/svg+xml</dc:format>
        <dc:type
           rdf:resource="http://purl.org/dc/dcmitype/StillImage" />
        <dc:title></dc:title>
      </cc:Work>
    </rdf:RDF>
  </metadata>
  <defs
     id="defs22" />
  <sodipodi:namedview
     pagecolor="#ffffff"
     bordercolor="#666666"
     borderopacity="1"
     objecttolerance="10"
     gridtolerance="10"
     guidetolerance="10"
     inkscape:pageopacity="0"
     inkscape:pageshadow="2"
     inkscape:window-width="1920"
     inkscape:window-height="1147"
     id="namedview20"
     showgrid="false"
     fit-margin-top="0"
     fit-margin-left="0"
     fit-margin-right="0"
     fit-margin-bottom="0"
     inkscape:zoom="3.2019465"
     inkscape:cx="42.598822"
     inkscape:cy="106.79812"
     inkscape:window-x="1920"
     inkscape:window-y="0"
     inkscape:window-maximized="1"
     inkscape:current-layer="svg18" />
  <g
     transform="translate(0,-0.4)"
     id="g16"
     style="fill:#cc0000;fill-rule:evenodd">
    <path
       d="m 344.6,121.5 v 18.1 h 32.7 c 6.7,0 18.2,-4.9 18.6,-18.6 v -7 c 0,-11.7 -9.6,-18.6 -18.6,-18.6 H 361 V 87 h 32.3 V 68.8 h -31 c -8,0 -18.7,6.6 -18.7,18.9 V 94 c 0,12.3 10.6,18.6 18.7,18.6 22.5,0.1 -5.4,0 15.4,0 v 8.8 m -208.3,-4.3 c 0,0 17.5,-1.5 17.5,-24.1 0,-22.6 -21.2,-24.7 -21.2,-24.7 h -38.2 v 71.3 h 19.2 v -17.2 l 16.6,17.2 h 28.4 z M 162,102.5 H 146.7 V 86.2 h 15.4 c 0,0 4.3,1.6 4.3,8.1 0,6.5 -4.4,8.2 -4.4,8.2 z m 72.3,-33.7 h -19.5 c -13.9,0 -18.6,12.6 -18.6,18.6 v 52.2 h 19.5 V 127.1 H 234 v 12.5 h 18.9 V 87.4 c 0,-15.2 -13.8,-18.6 -18.6,-18.6 z M 234,106.9 H 215.6 V 89.6 c 0,0 0,-3.9 6.1,-3.9 h 6.7 c 5.4,0 5.5,3.9 5.5,3.9 v 17.3 z"
       id="path2"
       inkscape:connector-curvature="0" />
    <rect
       width="20.299999"
       height="70.800003"
       x="261.79999"
       y="68.800003"
       id="rect4" />
    <polygon
       points="290.4,68.8 290.4,121.3 290.4,139.6 310.6,139.6 337.9,139.6 337.9,121.3 310.6,121.3 310.6,68.8 "
       id="polygon6" />
    <path
       d="m 7,139.6 h 79 c 0,0 -15.1,-68.9 34.9,-96.8 10.9,-5.3 45.6,-25.1 102.4,16.9 1.8,-1.5 3.5,-2.7 3.5,-2.7 0,0 -52,-51.9 -109.9,-46.1 C 87.8,13.5 52,40 31,75 10,110 7,139.6 7,139.6 Z"
       id="path8"
       inkscape:connector-curvature="0" />
    <path
       d="m 7,139.6 h 79 c 0,0 -15.1,-68.9 34.9,-96.8 10.9,-5.3 45.6,-25.1 102.4,16.9 1.8,-1.5 3.5,-2.7 3.5,-2.7 0,0 -52,-51.9 -109.9,-46.1 C 87.8,13.5 52,40 31,75 10,110 7,139.6 7,139.6 Z"
       id="path10"
       inkscape:connector-curvature="0" />
    <path
       d="m 7,139.6 h 79 c 0,0 -15.1,-68.9 34.9,-96.8 10.9,-5.3 45.6,-25.1 102.4,16.9 1.8,-1.5 3.5,-2.7 3.5,-2.7 0,0 -52,-51.9 -109.9,-46.1 C 87.7,13.5 51.9,40 30.9,75 9.9,110 7,139.6 7,139.6 Z M 171.6,16.5 172,9.8 c -0.9,-0.5 -3.4,-1.7 -9.7,-3.5 l -0.4,6.6 c 3.3,1.1 6.5,2.3 9.7,3.6 z"
       id="path12"
       inkscape:connector-curvature="0" />
    <path
       d="m 162.1,37.7 -0.4,6.3 c 3.3,0.1 6.6,0.5 9.9,1.2 L 172,39 c -3.4,-0.7 -6.7,-1.1 -9.9,-1.3 z m -37,-31.2 h 1 l -2,-6.1 c -3.1,0 -6.3,0.2 -9.6,0.6 l 1.9,5.9 c 2.9,-0.3 5.8,-0.4 8.7,-0.4 z m 4.8,36.8 2.3,6.9 c 2.9,-1.4 5.8,-2.6 8.7,-3.5 l -2.2,-6.6 c -3.4,1 -6.3,2.1 -8.8,3.2 z M 84.5,17 80,10.1 c -2.5,1.3 -5.1,2.7 -7.8,4.3 l 4.6,7 c 2.6,-1.6 5.1,-3.1 7.7,-4.4 z m 20.5,45 4.8,7.2 c 1.7,-2.5 3.7,-4.8 5.9,-7.1 l -4.5,-6.8 c -2.3,2.1 -4.4,4.4 -6.2,6.7 z m -14.5,32.2 8.1,6.4 c 0.4,-3.9 1.1,-7.8 2.1,-11.7 l -7.2,-5.7 c -1.3,3.7 -2.2,7.4 -3,11 z M 46.7,46.7 39.6,40.5 C 37,43 34.5,45.5 32.2,48 l 7.7,6.6 c 2.1,-2.7 4.4,-5.4 6.8,-7.9 z M 16.5,91.4 5,87.2 c -1.9,4.3 -4,9.3 -5,12 l 11.5,4.2 c 1.3,-3.4 3.4,-8.3 5,-12 z M 89,119.6 c 0.2,5.3 0.7,9.6 1.2,12.6 l 12,4.3 c -0.9,-3.9 -1.8,-8.3 -2.4,-13 z"
       id="path14"
       inkscape:connector-curvature="0" />
  </g>
</svg>
